<svg width="40" height="40" viewBox="0 0 40 40" fill="none" xmlns="http://www.w3.org/2000/svg">
<g clip-path="url(#clip0_0_1738)">
<path d="M20.0008 5.6267C20.0008 4.35601 19.4961 3.13737 18.5975 2.23886C17.699 1.34035 16.4804 0.835571 15.2097 0.835571C13.939 0.835571 12.7204 1.34035 11.8219 2.23886C10.9234 3.13737 10.4186 4.35601 10.4186 5.6267C9.39902 5.62641 8.39772 5.89725 7.51733 6.41144C6.63693 6.92564 5.90911 7.66471 5.40846 8.55288C4.90781 9.44105 4.65236 10.4464 4.66828 11.4658C4.68419 12.4853 4.97091 13.4821 5.49904 14.3542C4.18731 14.6077 3.00473 15.3099 2.15436 16.3403C1.30398 17.3707 0.838867 18.6651 0.838867 20.0011C0.838867 21.337 1.30398 22.6314 2.15436 23.6618C3.00473 24.6922 4.18731 25.3944 5.49904 25.6479C4.9714 26.5199 4.68508 27.5166 4.66941 28.5358C4.65375 29.5549 4.9093 30.5599 5.40989 31.4478C5.91047 32.3356 6.6381 33.0745 7.51822 33.5886C8.39834 34.1027 9.39931 34.3736 10.4186 34.3735C10.4188 35.6442 10.9239 36.8627 11.8225 37.761C12.7212 38.6594 13.94 39.1639 15.2107 39.1637C16.4814 39.1634 17.6999 38.6584 18.5982 37.7597C19.4966 36.861 20.0011 35.6423 20.0008 34.3716" stroke="#CABBCE" stroke-width="1.6" stroke-linecap="round" stroke-linejoin="round"/>
<path d="M20 34.3735C20 35.6442 20.5048 36.8628 21.4033 37.7613C22.3018 38.6598 23.5204 39.1646 24.7911 39.1646C26.0618 39.1646 27.2805 38.6598 28.179 37.7613C29.0775 36.8628 29.5823 35.6442 29.5823 34.3735C30.6015 34.3736 31.6025 34.1027 32.4826 33.5886C33.3627 33.0745 34.0904 32.3356 34.591 31.4478C35.0915 30.5599 35.3471 29.5549 35.3314 28.5357C35.3158 27.5166 35.0294 26.5199 34.5018 25.6479C35.8135 25.3944 36.9961 24.6922 37.8465 23.6618C38.6969 22.6314 39.162 21.337 39.162 20.001C39.162 18.665 38.6969 17.3707 37.8465 16.3403C36.9961 15.3099 35.8135 14.6077 34.5018 14.3542C35.0299 13.4821 35.3166 12.4852 35.3326 11.4658C35.3485 10.4464 35.093 9.44104 34.5924 8.55286C34.0917 7.66469 33.3639 6.92562 32.4835 6.41143C31.6031 5.89723 30.6018 5.62639 29.5823 5.62668C29.5824 4.9975 29.4586 4.37446 29.2179 3.79312C28.9773 3.21179 28.6245 2.68355 28.1796 2.23856C27.7348 1.79358 27.2067 1.44056 26.6255 1.19966C26.0443 0.958771 25.4213 0.834721 24.7921 0.834595C23.5214 0.834341 22.3027 1.33888 21.404 2.23721C20.5053 3.13554 20.0003 4.35408 20 5.62477" stroke="#CABBCE" stroke-width="1.6" stroke-linecap="round" stroke-linejoin="round"/>
<path d="M17.0997 10.4198V14.2124M10.417 17.1273H14.3496M25.7927 17.1273H29.7253M25.7927 22.8269H29.7253M10.417 22.8269H14.3496M17.0997 25.7878V29.5824M22.8969 25.7878V29.5824M22.8797 10.4178V14.2124M16.2679 25.6901H23.8782C24.3864 25.6901 24.8739 25.4881 25.2333 25.1287C25.5927 24.7693 25.7946 24.2819 25.7946 23.7736V16.1289C25.7946 15.6206 25.5927 15.1331 25.2333 14.7737C24.8739 14.4143 24.3864 14.2124 23.8782 14.2124H16.2679C15.7596 14.2124 15.2722 14.4143 14.9128 14.7737C14.5534 15.1331 14.3515 15.6206 14.3515 16.1289V23.7736C14.3515 24.2819 14.5534 24.7693 14.9128 25.1287C15.2722 25.4881 15.7596 25.6901 16.2679 25.6901Z" stroke="#003C43" stroke-width="1.6" stroke-linecap="round" stroke-linejoin="round"/>
</g>
<defs>
<clipPath id="clip0_0_1738">
<rect width="40" height="40" fill="white"/>
</clipPath>
</defs>
</svg>
