<svg width="44" height="40" viewBox="0 0 44 40" fill="none" xmlns="http://www.w3.org/2000/svg">
<path d="M31.8604 7.25C33.2653 7.25003 34.6425 7.37751 35.9922 7.63184C37.1716 7.85403 38.3159 8.18315 39.4248 8.62012L39.8984 8.81445C40.2837 8.98736 40.5687 9.22244 40.7656 9.51562C40.9654 9.81316 41.0645 10.1377 41.0645 10.4941V29.3027C41.0645 29.9642 40.7755 30.4596 40.167 30.8115C39.5595 31.1626 38.9795 31.1668 38.3926 30.833L38.375 30.8223L38.3555 30.8154L37.5713 30.542C36.7832 30.2828 35.9842 30.0661 35.1748 29.8916C34.0899 29.6577 32.9849 29.541 31.8604 29.541C29.9261 29.541 28.0664 29.8292 26.2832 30.4062C24.5564 30.9651 22.9309 31.7318 21.4062 32.7041C19.8777 31.7048 18.2202 30.9306 16.4326 30.3848C14.5907 29.8224 12.7022 29.541 10.7686 29.541C9.64298 29.541 8.537 29.6642 7.45117 29.9121C6.37563 30.1577 5.3034 30.458 4.23535 30.8125L4.22559 30.8164L4.2168 30.8203C3.58852 31.0877 2.99595 31.0508 2.41504 30.7119C1.83568 30.3738 1.56445 29.9107 1.56445 29.3027V10.4941C1.56445 10.1341 1.65807 9.80779 1.84473 9.50977C2.02585 9.22067 2.30095 8.987 2.68555 8.81445C3.94127 8.28005 5.24777 7.88581 6.60547 7.63184C7.96558 7.37747 9.35316 7.25003 10.7686 7.25C12.6573 7.25 14.4931 7.47749 16.2754 7.93262C18.0551 8.38709 19.7218 9.08234 21.2764 10.0176L21.4062 10.0957L21.5361 10.0166C23.0602 9.08175 24.6963 8.38689 26.4453 7.93262C28.197 7.47766 30.0022 7.25 31.8604 7.25ZM31.3145 22.2812C32.0909 22.2812 32.8522 22.3348 33.5977 22.4414C34.2812 22.5391 34.952 22.6596 35.6104 22.8018V24.0469C34.978 23.8512 34.3404 23.6985 33.6963 23.5928C32.9393 23.4685 32.145 23.4062 31.3145 23.4062C30.1452 23.4062 29.0204 23.5301 27.9404 23.7783C26.9919 23.9963 26.0784 24.3093 25.2012 24.7188V23.3047C26.135 22.9736 27.0888 22.722 28.0625 22.5518C29.0925 22.3717 30.1763 22.2812 31.3145 22.2812ZM31.3145 17.8125C32.0909 17.8125 32.8522 17.8661 33.5977 17.9727C34.2812 18.0704 34.952 18.1909 35.6104 18.333V19.5781C34.978 19.3824 34.3404 19.2298 33.6963 19.124C32.9393 18.9998 32.145 18.9375 31.3145 18.9375C30.1442 18.9375 29.0184 19.0679 27.9375 19.3301C26.9901 19.5599 26.0778 19.87 25.2012 20.2598V18.874C26.1355 18.5303 27.0894 18.2694 28.0635 18.0928C29.0931 17.9061 30.1766 17.8125 31.3145 17.8125ZM31.3145 13.3438C32.0909 13.3438 32.8522 13.3973 33.5977 13.5039C34.2812 13.6016 34.952 13.7221 35.6104 13.8643V15.1094C34.978 14.9137 34.3404 14.761 33.6963 14.6553C32.9393 14.531 32.145 14.4688 31.3145 14.4688C30.1442 14.4688 29.0184 14.5991 27.9375 14.8613C26.9901 15.0912 26.0778 15.4013 25.2012 15.791V14.4053C26.1355 14.0615 27.0894 13.8006 28.0635 13.624C29.0931 13.4373 30.1766 13.3438 31.3145 13.3438ZM20.292 11.8545L20.1699 11.7822C18.7865 10.958 17.2867 10.3198 15.6719 9.86719C14.0557 9.41426 12.4208 9.1875 10.7686 9.1875C9.59842 9.18753 8.45089 9.31843 7.32617 9.58008C6.21199 9.83929 5.0904 10.1594 3.96191 10.541L3.79199 10.5986V28.7803L4.13574 28.6416C5.05342 28.2712 6.10148 27.9979 7.28223 27.8242C8.4676 27.6499 9.62992 27.5625 10.7686 27.5625C12.3744 27.5625 13.9367 27.7299 15.4551 28.0645C16.9743 28.3991 18.4691 28.9013 19.9385 29.5713L20.292 29.7324V11.8545ZM38.8369 10.6162L38.6895 10.5498C37.6408 10.0811 36.5337 9.73679 35.3691 9.5166C34.2079 9.29705 33.0383 9.18753 31.8604 9.1875C30.2009 9.1875 28.5936 9.41449 27.04 9.86816C25.4896 10.3209 24.0225 10.9589 22.6406 11.7822L22.5186 11.8545V29.7295L22.8711 29.5723C24.3733 28.901 25.8429 28.3981 27.2803 28.0635C28.7145 27.7296 30.2413 27.5625 31.8604 27.5625C33 27.5625 34.1785 27.6426 35.3955 27.8037C36.6133 27.965 37.6519 28.1798 38.5137 28.4453L38.8369 28.5449V10.6162Z" fill="#CABBCE" stroke="#F4EBFF" stroke-width="0.5"/>
<path d="M31.3145 22.1816C32.0953 22.1816 32.8612 22.2346 33.6113 22.3418C34.3243 22.4437 35.0242 22.5706 35.71 22.7207V24.1826C35.0397 23.9684 34.3631 23.8036 33.6797 23.6914C32.9286 23.5681 32.14 23.5059 31.3145 23.5059C30.1524 23.5059 29.0351 23.6296 27.9629 23.876C26.9696 24.1043 26.0161 24.4391 25.1016 24.8789V23.2334C26.0617 22.8887 27.0427 22.6284 28.0449 22.4531C29.0811 22.2719 30.171 22.1817 31.3145 22.1816ZM31.3145 17.7129C32.0953 17.7129 32.8612 17.7658 33.6113 17.873C34.3243 17.975 35.0242 18.1018 35.71 18.252V19.7139C35.0397 19.4997 34.3631 19.3348 33.6797 19.2227C32.9286 19.0994 32.14 19.0371 31.3145 19.0371C30.1518 19.0371 29.0337 19.1675 27.9609 19.4277C26.9685 19.6685 26.0155 19.9979 25.1016 20.415V18.8037C26.062 18.446 27.0434 18.1759 28.0459 17.9941C29.0817 17.8063 30.1713 17.7129 31.3145 17.7129ZM31.3145 13.2441C32.0953 13.2441 32.8612 13.2971 33.6113 13.4043C34.3243 13.5062 35.0242 13.6331 35.71 13.7832V15.2451C35.0397 15.0309 34.3631 14.8661 33.6797 14.7539C32.9286 14.6306 32.14 14.5684 31.3145 14.5684C30.1518 14.5684 29.0337 14.6987 27.9609 14.959C26.9685 15.1998 26.0155 15.5291 25.1016 15.9463V14.335C26.062 13.9772 27.0434 13.7072 28.0459 13.5254C29.0817 13.3376 30.1713 13.2442 31.3145 13.2441Z" fill="#003C43" stroke="#F4EBFF" stroke-width="0.3"/>
</svg>
